# xmcd
#
# Track frame offsets:
#       150
#       15840
#       29384
#       46151
#       67931
#       76538
#       88529
#       104036
#       117732
#       137527
#       152019
#       164702
#
# Disc length: 2582 seconds
#
# Revision: 4
# Processed by: cddbd v1.5.2PL0 Copyright (c) Steve Scherf et al.
# Submitted via: FreeDbEdit v0.1
# Normalized: r2:TDELIM( - ),TSWAP
#
DISCID=8d0a140c
DTITLE=Various Artist - A Family Christmas
DYEAR=1900
DGENRE=Christmas
TTITLE0=Tony Orlando - Away in a Manger
TTITLE1=Instrumental Saxaphone - It Came Upon a Midnight Clear
TTITLE2=Stella Parton - Deck the Halls
TTITLE3=Eddie Rabbitt - Silent Night
TTITLE4=Hammer Dulcimer - Carol of the Bells
TTITLE5=Jennifer Wilson - Jingle Bells
TTITLE6=Mickey Gilley - God Rest Ye Merry Gentlemen
TTITLE7=Appalachian Instrumental - Good King Wenceslas
TTITLE8=Jennifer Wilson - O Holy Night
TTITLE9=Eddie Rabbitt - We Wish You a Merry Christmas
TTITLE10=Boxcar Willie - Joy to the World
TTITLE11=Appalachian Instrumental - Oh Christmas Tree
EXTD=
EXTT0=
EXTT1=
EXTT2=
EXTT3=
EXTT4=
EXTT5=
EXTT6=
EXTT7=
EXTT8=
EXTT9=
EXTT10=
EXTT11=
PLAYORDER=
